<svg width="205" height="22" viewBox="0 0 205 22" fill="none" xmlns="http://www.w3.org/2000/svg">
<path d="M96.108 9.28977H93.983C93.9223 8.94129 93.8106 8.63258 93.6477 8.36364C93.4848 8.09091 93.2822 7.85985 93.0398 7.67045C92.7973 7.48106 92.5208 7.33901 92.2102 7.24432C91.9034 7.14583 91.572 7.09659 91.2159 7.09659C90.5833 7.09659 90.0227 7.25568 89.5341 7.57386C89.0455 7.88826 88.6629 8.35038 88.3864 8.96023C88.1098 9.56629 87.9716 10.3068 87.9716 11.1818C87.9716 12.072 88.1098 12.822 88.3864 13.4318C88.6667 14.0379 89.0492 14.4962 89.5341 14.8068C90.0227 15.1136 90.5814 15.267 91.2102 15.267C91.5587 15.267 91.8845 15.2216 92.1875 15.1307C92.4943 15.036 92.7689 14.8977 93.0114 14.7159C93.2576 14.5341 93.464 14.3106 93.6307 14.0455C93.8011 13.7803 93.9186 13.4773 93.983 13.1364L96.108 13.1477C96.0284 13.7008 95.8561 14.2197 95.5909 14.7045C95.3295 15.1894 94.9867 15.6174 94.5625 15.9886C94.1383 16.3561 93.642 16.6439 93.0739 16.8523C92.5057 17.0568 91.875 17.1591 91.1818 17.1591C90.1591 17.1591 89.2462 16.9223 88.4432 16.4489C87.6402 15.9754 87.0076 15.2917 86.5455 14.3977C86.0833 13.5038 85.8523 12.4318 85.8523 11.1818C85.8523 9.92803 86.0852 8.85606 86.5511 7.96591C87.017 7.07197 87.6515 6.38826 88.4545 5.91477C89.2576 5.44129 90.1667 5.20455 91.1818 5.20455C91.8295 5.20455 92.4318 5.29545 92.9886 5.47727C93.5455 5.65909 94.0417 5.92614 94.4773 6.27841C94.9129 6.62689 95.2708 7.05492 95.5511 7.5625C95.8352 8.06629 96.0208 8.64205 96.108 9.28977ZM100.004 5.36364V17H97.9474V5.36364H100.004ZM102.119 17V8.27273H104.176V17H102.119ZM103.153 7.03409C102.828 7.03409 102.547 6.92614 102.312 6.71023C102.078 6.49053 101.96 6.22727 101.96 5.92045C101.96 5.60985 102.078 5.34659 102.312 5.13068C102.547 4.91098 102.828 4.80114 103.153 4.80114C103.483 4.80114 103.763 4.91098 103.994 5.13068C104.229 5.34659 104.347 5.60985 104.347 5.92045C104.347 6.22727 104.229 6.49053 103.994 6.71023C103.763 6.92614 103.483 7.03409 103.153 7.03409ZM108.348 11.8864V17H106.291V8.27273H108.257V9.75568H108.359C108.56 9.26705 108.88 8.87879 109.32 8.59091C109.763 8.30303 110.31 8.15909 110.962 8.15909C111.564 8.15909 112.089 8.28788 112.536 8.54545C112.986 8.80303 113.335 9.17614 113.581 9.66477C113.831 10.1534 113.954 10.7462 113.95 11.4432V17H111.893V11.7614C111.893 11.178 111.742 10.7216 111.439 10.392C111.14 10.0625 110.725 9.89773 110.195 9.89773C109.835 9.89773 109.515 9.97727 109.234 10.1364C108.958 10.2917 108.74 10.517 108.581 10.8125C108.426 11.108 108.348 11.4659 108.348 11.8864ZM116.041 17V8.27273H118.098V17H116.041ZM117.075 7.03409C116.75 7.03409 116.469 6.92614 116.234 6.71023C116 6.49053 115.882 6.22727 115.882 5.92045C115.882 5.60985 116 5.34659 116.234 5.13068C116.469 4.91098 116.75 4.80114 117.075 4.80114C117.405 4.80114 117.685 4.91098 117.916 5.13068C118.151 5.34659 118.268 5.60985 118.268 5.92045C118.268 6.22727 118.151 6.49053 117.916 6.71023C117.685 6.92614 117.405 7.03409 117.075 7.03409ZM124.02 17.1705C123.149 17.1705 122.401 16.9792 121.776 16.5966C121.154 16.214 120.675 15.6856 120.338 15.0114C120.005 14.3333 119.838 13.553 119.838 12.6705C119.838 11.7841 120.009 11.0019 120.349 10.3239C120.69 9.64205 121.171 9.11174 121.793 8.73295C122.418 8.35038 123.156 8.15909 124.009 8.15909C124.717 8.15909 125.344 8.28977 125.889 8.55114C126.438 8.80871 126.876 9.17424 127.202 9.64773C127.527 10.1174 127.713 10.6667 127.759 11.2955H125.793C125.713 10.875 125.524 10.5246 125.224 10.2443C124.929 9.96023 124.533 9.81818 124.037 9.81818C123.616 9.81818 123.247 9.93182 122.929 10.1591C122.611 10.3826 122.363 10.7045 122.185 11.125C122.01 11.5455 121.923 12.0492 121.923 12.6364C121.923 13.2311 122.01 13.7424 122.185 14.1705C122.359 14.5947 122.603 14.9223 122.918 15.1534C123.236 15.3807 123.609 15.4943 124.037 15.4943C124.34 15.4943 124.611 15.4375 124.849 15.3239C125.092 15.2064 125.295 15.0379 125.457 14.8182C125.62 14.5985 125.732 14.3314 125.793 14.017H127.759C127.709 14.6345 127.527 15.1818 127.213 15.6591C126.899 16.1326 126.471 16.5038 125.929 16.7727C125.387 17.0379 124.751 17.1705 124.02 17.1705ZM131.959 17.1761C131.406 17.1761 130.908 17.0777 130.464 16.8807C130.025 16.6799 129.677 16.3845 129.419 15.9943C129.165 15.6042 129.038 15.1231 129.038 14.5511C129.038 14.0587 129.129 13.6515 129.311 13.3295C129.493 13.0076 129.741 12.75 130.055 12.5568C130.37 12.3636 130.724 12.2178 131.118 12.1193C131.516 12.017 131.927 11.9432 132.351 11.8977C132.862 11.8447 133.277 11.7973 133.595 11.7557C133.913 11.7102 134.144 11.642 134.288 11.5511C134.436 11.4564 134.51 11.3106 134.51 11.1136V11.0795C134.51 10.6515 134.383 10.3201 134.129 10.0852C133.875 9.85038 133.51 9.73295 133.033 9.73295C132.529 9.73295 132.129 9.8428 131.834 10.0625C131.542 10.2822 131.345 10.5417 131.243 10.8409L129.322 10.5682C129.474 10.0379 129.724 9.5947 130.072 9.23864C130.421 8.87879 130.847 8.60985 131.351 8.43182C131.855 8.25 132.411 8.15909 133.021 8.15909C133.442 8.15909 133.86 8.20833 134.277 8.30682C134.694 8.4053 135.074 8.56818 135.419 8.79545C135.764 9.01894 136.04 9.32386 136.249 9.71023C136.461 10.0966 136.567 10.5795 136.567 11.1591V17H134.589V15.8011H134.521C134.396 16.0436 134.22 16.2708 133.993 16.483C133.769 16.6913 133.487 16.8598 133.146 16.9886C132.809 17.1136 132.413 17.1761 131.959 17.1761ZM132.493 15.6648C132.906 15.6648 133.264 15.5833 133.567 15.4205C133.87 15.2538 134.103 15.0341 134.266 14.7614C134.432 14.4886 134.516 14.1913 134.516 13.8693V12.8409C134.451 12.8939 134.341 12.9432 134.186 12.9886C134.035 13.0341 133.864 13.0739 133.675 13.108C133.485 13.142 133.298 13.1723 133.112 13.1989C132.927 13.2254 132.766 13.2481 132.629 13.267C132.322 13.3087 132.048 13.3769 131.805 13.4716C131.563 13.5663 131.372 13.6989 131.232 13.8693C131.091 14.036 131.021 14.2519 131.021 14.517C131.021 14.8958 131.16 15.1818 131.436 15.375C131.713 15.5682 132.065 15.6648 132.493 15.6648ZM140.692 5.36364V17H138.635V5.36364H140.692ZM148.832 11.8864V17H146.776V8.27273H148.741V9.75568H148.844C149.045 9.26705 149.365 8.87879 149.804 8.59091C150.247 8.30303 150.795 8.15909 151.446 8.15909C152.048 8.15909 152.573 8.28788 153.02 8.54545C153.471 8.80303 153.819 9.17614 154.065 9.66477C154.315 10.1534 154.438 10.7462 154.435 11.4432V17H152.378V11.7614C152.378 11.178 152.226 10.7216 151.923 10.392C151.624 10.0625 151.209 9.89773 150.679 9.89773C150.319 9.89773 149.999 9.97727 149.719 10.1364C149.442 10.2917 149.224 10.517 149.065 10.8125C148.91 11.108 148.832 11.4659 148.832 11.8864ZM162.94 8.5625C162.887 8.06629 162.664 7.67992 162.27 7.40341C161.88 7.12689 161.372 6.98864 160.747 6.98864C160.308 6.98864 159.931 7.05492 159.616 7.1875C159.302 7.32008 159.062 7.5 158.895 7.72727C158.728 7.95455 158.643 8.21402 158.639 8.50568C158.639 8.74811 158.694 8.95833 158.804 9.13636C158.918 9.31439 159.071 9.46591 159.264 9.59091C159.457 9.71212 159.671 9.81439 159.906 9.89773C160.141 9.98106 160.378 10.0511 160.616 10.108L161.707 10.3807C162.147 10.483 162.569 10.6212 162.974 10.7955C163.384 10.9697 163.749 11.1894 164.071 11.4545C164.397 11.7197 164.654 12.0398 164.844 12.4148C165.033 12.7898 165.128 13.2292 165.128 13.733C165.128 14.4148 164.954 15.0152 164.605 15.5341C164.257 16.0492 163.753 16.4527 163.094 16.7443C162.438 17.0322 161.645 17.1761 160.713 17.1761C159.808 17.1761 159.022 17.036 158.355 16.7557C157.692 16.4754 157.173 16.0663 156.798 15.5284C156.427 14.9905 156.226 14.3352 156.196 13.5625H158.27C158.3 13.9678 158.425 14.3049 158.645 14.5739C158.865 14.8428 159.151 15.0436 159.503 15.1761C159.859 15.3087 160.257 15.375 160.696 15.375C161.154 15.375 161.556 15.3068 161.901 15.1705C162.249 15.0303 162.522 14.8371 162.719 14.5909C162.916 14.3409 163.016 14.0492 163.02 13.7159C163.016 13.4129 162.927 13.1629 162.753 12.9659C162.579 12.7652 162.334 12.5985 162.02 12.4659C161.709 12.3295 161.346 12.2083 160.929 12.1023L159.605 11.7614C158.647 11.5152 157.889 11.142 157.332 10.642C156.779 10.1383 156.503 9.4697 156.503 8.63636C156.503 7.95076 156.688 7.35038 157.06 6.83523C157.435 6.32008 157.944 5.92045 158.588 5.63636C159.232 5.34848 159.961 5.20455 160.776 5.20455C161.601 5.20455 162.325 5.34848 162.946 5.63636C163.571 5.92045 164.062 6.31629 164.418 6.82386C164.774 7.32765 164.957 7.9072 164.969 8.5625H162.94ZM166.916 17V8.27273H168.973V17H166.916ZM167.95 7.03409C167.625 7.03409 167.344 6.92614 167.109 6.71023C166.875 6.49053 166.757 6.22727 166.757 5.92045C166.757 5.60985 166.875 5.34659 167.109 5.13068C167.344 4.91098 167.625 4.80114 167.95 4.80114C168.28 4.80114 168.56 4.91098 168.791 5.13068C169.026 5.34659 169.143 5.60985 169.143 5.92045C169.143 6.22727 169.026 6.49053 168.791 6.71023C168.56 6.92614 168.28 7.03409 167.95 7.03409ZM174.884 20.4545C174.145 20.4545 173.51 20.3542 172.98 20.1534C172.45 19.9564 172.024 19.6913 171.702 19.358C171.38 19.0246 171.156 18.6553 171.031 18.25L172.884 17.8011C172.967 17.9716 173.088 18.1402 173.247 18.3068C173.406 18.4773 173.62 18.6174 173.889 18.7273C174.162 18.8409 174.505 18.8977 174.918 18.8977C175.501 18.8977 175.984 18.7557 176.366 18.4716C176.749 18.1913 176.94 17.7292 176.94 17.0852V15.4318H176.838C176.732 15.6439 176.577 15.8617 176.372 16.0852C176.171 16.3087 175.904 16.4962 175.571 16.6477C175.241 16.7992 174.827 16.875 174.327 16.875C173.656 16.875 173.048 16.7178 172.503 16.4034C171.961 16.0852 171.529 15.6117 171.207 14.983C170.889 14.3504 170.73 13.5587 170.73 12.608C170.73 11.6496 170.889 10.8409 171.207 10.1818C171.529 9.51894 171.963 9.01705 172.509 8.67614C173.054 8.33144 173.662 8.15909 174.332 8.15909C174.844 8.15909 175.264 8.24621 175.594 8.42045C175.927 8.59091 176.192 8.79735 176.389 9.03977C176.586 9.27841 176.736 9.50379 176.838 9.71591H176.952V8.27273H178.98V17.142C178.98 17.8883 178.802 18.5057 178.446 18.9943C178.09 19.483 177.603 19.8485 176.986 20.0909C176.368 20.3333 175.668 20.4545 174.884 20.4545ZM174.901 15.2614C175.336 15.2614 175.707 15.1553 176.014 14.9432C176.321 14.7311 176.554 14.4261 176.713 14.0284C176.872 13.6307 176.952 13.1534 176.952 12.5966C176.952 12.0473 176.872 11.5663 176.713 11.1534C176.558 10.7405 176.327 10.4205 176.02 10.1932C175.717 9.96212 175.344 9.84659 174.901 9.84659C174.442 9.84659 174.06 9.96591 173.753 10.2045C173.446 10.4432 173.215 10.7708 173.06 11.1875C172.904 11.6004 172.827 12.0701 172.827 12.5966C172.827 13.1307 172.904 13.5985 173.06 14C173.219 14.3977 173.452 14.7083 173.759 14.9318C174.069 15.1515 174.45 15.2614 174.901 15.2614ZM183.145 11.8864V17H181.088V5.36364H183.099V9.75568H183.202C183.406 9.26326 183.723 8.875 184.151 8.59091C184.582 8.30303 185.132 8.15909 185.798 8.15909C186.404 8.15909 186.933 8.28598 187.384 8.53977C187.834 8.79356 188.183 9.16477 188.429 9.65341C188.679 10.142 188.804 10.7386 188.804 11.4432V17H186.747V11.7614C186.747 11.1742 186.596 10.7178 186.293 10.392C185.993 10.0625 185.573 9.89773 185.031 9.89773C184.668 9.89773 184.342 9.97727 184.054 10.1364C183.77 10.2917 183.546 10.517 183.384 10.8125C183.224 11.108 183.145 11.4659 183.145 11.8864ZM195.259 8.27273V9.86364H190.241V8.27273H195.259ZM191.48 6.18182H193.537V14.375C193.537 14.6515 193.579 14.8636 193.662 15.0114C193.749 15.1553 193.863 15.2538 194.003 15.3068C194.143 15.3598 194.298 15.3864 194.469 15.3864C194.598 15.3864 194.715 15.3769 194.821 15.358C194.931 15.339 195.014 15.322 195.071 15.3068L195.418 16.9148C195.308 16.9527 195.151 16.9943 194.946 17.0398C194.745 17.0852 194.499 17.1117 194.207 17.1193C193.692 17.1345 193.228 17.0568 192.815 16.8864C192.402 16.7121 192.075 16.4432 191.832 16.0795C191.594 15.7159 191.476 15.2614 191.48 14.7159V6.18182ZM203.751 10.5795L201.876 10.7841C201.823 10.5947 201.731 10.4167 201.598 10.25C201.469 10.0833 201.295 9.94886 201.075 9.84659C200.856 9.74432 200.587 9.69318 200.268 9.69318C199.84 9.69318 199.481 9.78598 199.189 9.97159C198.901 10.1572 198.759 10.3977 198.763 10.6932C198.759 10.947 198.852 11.1534 199.041 11.3125C199.234 11.4716 199.553 11.6023 199.996 11.7045L201.484 12.0227C202.31 12.2008 202.924 12.483 203.325 12.8693C203.731 13.2557 203.935 13.7614 203.939 14.3864C203.935 14.9356 203.774 15.4205 203.456 15.8409C203.142 16.2576 202.704 16.5833 202.143 16.8182C201.583 17.053 200.939 17.1705 200.212 17.1705C199.143 17.1705 198.284 16.947 197.632 16.5C196.981 16.0492 196.592 15.4223 196.467 14.6193L198.473 14.4261C198.564 14.8201 198.757 15.1174 199.053 15.3182C199.348 15.5189 199.732 15.6193 200.206 15.6193C200.695 15.6193 201.087 15.5189 201.382 15.3182C201.681 15.1174 201.831 14.8693 201.831 14.5739C201.831 14.3239 201.734 14.1174 201.541 13.9545C201.352 13.7917 201.056 13.6667 200.655 13.5795L199.166 13.267C198.329 13.0928 197.71 12.7992 197.308 12.3864C196.907 11.9697 196.708 11.4432 196.712 10.8068C196.708 10.2689 196.854 9.80303 197.149 9.40909C197.448 9.01136 197.863 8.70455 198.393 8.48864C198.928 8.26894 199.543 8.15909 200.24 8.15909C201.263 8.15909 202.068 8.37689 202.655 8.8125C203.246 9.24811 203.611 9.83712 203.751 10.5795Z" fill="black"/>
<path d="M10.4859 9.14464C10.586 8.74426 10.594 8.72124 10.9043 8.76228C11.054 8.77178 11.2041 8.77178 11.3537 8.76228C11.7871 8.76228 11.8692 8.6812 11.9323 8.2618C12.1495 6.84246 12.5909 5.53321 14.0343 4.85857C14.7069 4.55128 15.4146 4.55729 16.0972 4.6794C16.9651 4.83555 17.2984 5.86353 16.6798 6.44408C16.4796 6.63526 16.0682 6.73035 15.7909 6.6783C15.5697 6.63726 15.3906 6.34198 15.2174 6.09575C15.1333 5.97763 15.0502 5.71839 15.0082 5.7274C14.829 5.76143 14.6899 5.74141 14.5077 5.96462C14.1814 6.37601 14.1414 6.95456 14.0173 7.46605C13.9172 7.86643 13.9062 8.28082 13.8451 8.76728H15.9671C15.9191 9.13663 15.881 9.42691 15.834 9.78425H13.8001C13.693 11.0855 13.5999 12.3297 13.4878 13.5688C13.3606 14.9602 13.3096 16.3715 13.0493 17.7338C12.7491 19.2793 12.1315 20.7096 10.3688 21.108C9.8423 21.2271 9.22471 21.2771 8.70121 21.084C8.53506 21.0219 8.21676 20.8017 8.14869 20.6365C8.08269 20.4641 8.05163 20.2803 8.0573 20.0957C8.06297 19.9112 8.10526 19.7296 8.18172 19.5615C8.38191 19.1511 8.73725 19.1972 9.09359 19.2272C9.69416 19.2793 9.68315 19.7557 9.72018 20.3733C10.0114 20.2778 10.2666 20.0959 10.4519 19.8518C10.6861 19.5515 10.8362 18.96 10.8893 18.4935C11.0955 16.6828 11.2546 14.8661 11.4208 13.0503C11.5049 12.1255 11.5369 11.1936 11.652 10.2727C11.7021 9.87233 11.5519 9.80627 11.2326 9.81327C10.9674 9.82028 10.7031 9.81327 10.3698 9.81327C10.4098 9.57405 10.4489 9.35884 10.4859 9.13963V9.14464Z" fill="black"/>
<path d="M74.7978 14.6107C74.7157 15.4455 74.2632 16.0471 73.6517 16.4454C71.8289 17.6306 69.4287 17.5145 67.9463 15.97C67.4048 15.3991 67.0712 14.6626 66.9994 13.879C66.8602 12.5998 66.8072 11.2966 67.5919 10.1755C68.9762 8.19561 71.1773 7.94437 73.0091 8.90529C74.1632 9.51286 74.8328 10.6269 74.8638 12.0132C74.8728 12.3936 74.8638 12.775 74.8638 13.2074H68.6179C68.4117 14.7739 69.4687 15.7097 70.7439 15.8038C71.7268 15.8739 72.6377 15.7147 73.1972 14.7498C73.2463 14.6658 73.4194 14.6207 73.5366 14.6157C73.9369 14.6037 74.3363 14.6107 74.7978 14.6107ZM68.5779 11.9972H73.3914C73.3464 10.0954 72.1142 9.61996 70.9331 9.63998C69.5478 9.663 68.5498 10.689 68.5779 11.9972Z" fill="black"/>
<path d="M25.7791 13.1253H19.384C19.1898 14.4326 20.0386 15.5576 21.3479 15.7208C22.4239 15.8549 23.4038 15.6908 24.0384 14.6608C24.0749 14.6195 24.1195 14.5862 24.1695 14.5629C24.2194 14.5397 24.2736 14.527 24.3287 14.5257C24.7441 14.5106 25.1595 14.5186 25.635 14.5186C25.5689 14.9246 25.417 15.3117 25.1895 15.6543C24.9621 15.9969 24.6642 16.2871 24.3157 16.5055C23.5084 17.0415 22.5457 17.2937 21.5793 17.2225C20.6129 17.1513 19.6977 16.7607 18.9776 16.1122C17.9767 15.2013 17.7064 13.9681 17.7415 12.6639C17.7561 12.2157 17.8152 11.7701 17.9176 11.3336C18.348 9.45685 20.0196 8.30475 21.9715 8.35781C23.9664 8.40785 25.2916 9.83521 25.5629 11.1725C25.687 11.7851 25.704 12.4197 25.7791 13.1253ZM19.332 11.9772H24.1816C24.1345 10.3407 23.2737 9.57496 21.5631 9.62C20.9565 9.6422 20.3829 9.90163 19.9656 10.3425C19.5483 10.7833 19.3208 11.3703 19.332 11.9772Z" fill="black"/>
<path d="M43.2002 13.1547H36.7851C36.671 14.577 37.6019 15.586 38.792 15.7191C39.8741 15.8412 40.894 15.7471 41.5166 14.6441C41.5567 14.572 41.7028 14.528 41.8009 14.525C42.2153 14.512 42.6307 14.519 43.0761 14.519C43.012 15.4478 42.4515 16.0554 41.7749 16.4958C39.5948 17.9262 36.0444 17.3026 35.3688 14.1336C34.9394 12.1077 35.3688 10.1168 37.1014 8.95768C38.4928 8.0278 41.2924 8.06483 42.5706 10.0697C43.1742 11.0016 43.3023 11.8694 43.2002 13.1547ZM41.7789 11.9946C41.6888 11.6062 41.6177 11.2739 41.5346 10.9436C41.2674 9.88456 39.5488 9.35706 38.4167 9.79848C37.4758 10.1658 36.7501 11.0867 36.7741 11.9946H41.7789Z" fill="black"/>
<path d="M46.1541 8.62444H47.8136V10.0067C47.9808 9.77953 48.0719 9.65842 48.16 9.5353C49.216 8.07892 51.4631 8.13397 52.5321 8.84865C52.8891 9.08349 53.1836 9.40166 53.3903 9.7757C53.5969 10.1497 53.7095 10.5684 53.7182 10.9957C53.7893 12.9555 53.7413 14.9194 53.7413 16.9073H52.1978C52.1978 16.7361 52.1978 16.561 52.1978 16.3868C52.1748 14.8533 52.1808 13.3199 52.1147 11.7884C52.0817 11.0277 51.8144 10.322 51.0897 9.91466C49.7885 9.18697 48.1429 9.9547 47.8477 11.4321C47.7798 11.7908 47.7463 12.1551 47.7476 12.5201C47.7356 13.9675 47.7426 15.4159 47.7426 16.8983H46.1541V8.62444Z" fill="black"/>
<path d="M7.47809 16.9184H5.84354C5.83453 16.7633 5.82152 16.6181 5.82052 16.475C5.80751 14.9245 5.80451 13.372 5.78249 11.8236C5.76247 10.4903 5.1639 9.78865 3.95575 9.64451C2.92578 9.52139 1.88779 10.2831 1.61053 11.3892C1.53719 11.6954 1.50056 12.0092 1.50142 12.3241C1.49041 13.8385 1.49642 15.3529 1.49642 16.9004H0V8.64256H1.46939V9.88274L1.34728 9.70657C1.70862 9.44632 2.07697 9.19408 2.43131 8.92282C3.38321 8.19313 5.40212 8.16711 6.329 8.92282C7.12075 9.57244 7.45707 10.4743 7.47109 11.4742C7.49611 13.273 7.47809 15.0717 7.47809 16.9184Z" fill="black"/>
<path d="M64.6612 11.4646H63.0657C62.8535 10.6508 62.397 10.0372 61.5272 9.82901C59.8416 9.42863 58.3132 10.5627 58.2631 12.3034C58.241 12.9317 58.3108 13.5599 58.4703 14.1681C58.7296 15.124 59.5383 15.7016 60.5263 15.7516C61.2519 15.7897 61.9766 15.7316 62.5282 15.1911C62.8214 14.9028 63.0226 14.5215 63.2999 14.1331H64.7313C64.6181 15.2141 64.1807 16.0709 63.2538 16.6445C61.8325 17.5243 59.6344 17.4572 58.3262 16.4373C57.8995 16.1183 57.5427 15.7155 57.2776 15.2534C57.0125 14.7914 56.8448 14.28 56.7847 13.7507C56.6296 12.4575 56.7036 11.2053 57.4193 10.0552C58.2201 8.76901 59.4402 8.34761 60.8596 8.37663C61.4057 8.3846 61.9476 8.47435 62.4671 8.64289C63.7733 9.0843 64.424 10.0833 64.6612 11.4646Z" fill="black"/>
<path d="M28.7375 8.57389H30.2079V10.2345C31.1699 8.5889 32.1248 8.07942 33.446 8.47079V9.94519C33.1217 9.96621 32.7964 9.99423 32.4701 10.0062C31.4571 10.0423 30.8255 10.6068 30.5383 11.5217C30.3616 12.0905 30.2606 12.6801 30.238 13.2753C30.1929 14.4765 30.224 15.6696 30.224 16.8998H28.7375V8.57389Z" fill="black"/>
<path d="M78.2002 6.13083C78.3871 6.13083 78.5184 6.09715 78.5942 6.02979C78.67 5.96075 78.7079 5.86224 78.7079 5.73426C78.7079 5.67196 78.6995 5.61723 78.6826 5.57008C78.6675 5.52293 78.6414 5.4842 78.6043 5.45389C78.569 5.42358 78.521 5.40084 78.4603 5.38569C78.4014 5.37053 78.3282 5.36296 78.2406 5.36296H77.9097V6.13083H78.2002ZM78.2406 5.05985C78.5319 5.05985 78.7466 5.11289 78.8847 5.21898C79.0245 5.32338 79.0943 5.4783 79.0943 5.68375C79.0943 5.84204 79.0497 5.97675 78.9605 6.08789C78.8712 6.19903 78.7374 6.27481 78.5589 6.31522C78.5875 6.33374 78.6119 6.35564 78.6321 6.38089C78.654 6.40615 78.6742 6.43562 78.6927 6.4693L79.2686 7.31295H78.8923C78.8367 7.31295 78.7963 7.2919 78.771 7.24981L78.2608 6.48698C78.2456 6.46509 78.2271 6.44825 78.2052 6.43646C78.185 6.42468 78.153 6.41878 78.1092 6.41878H77.9097V7.31295H77.5157V5.05985H78.2406ZM78.2709 7.80803C78.4191 7.80803 78.5614 7.78951 78.6978 7.75246C78.8359 7.71373 78.9638 7.65984 79.0817 7.5908C79.2013 7.52008 79.309 7.43588 79.405 7.33821C79.5027 7.24054 79.5861 7.13193 79.6551 7.01237C79.7241 6.89113 79.7772 6.76146 79.8142 6.62338C79.853 6.4853 79.8723 6.34132 79.8723 6.19145C79.8723 5.9658 79.8302 5.75447 79.746 5.55745C79.6635 5.35875 79.5499 5.18614 79.405 5.03964C79.2619 4.89145 79.0927 4.77526 78.8973 4.69106C78.702 4.60518 78.4932 4.56224 78.2709 4.56224C78.1227 4.56224 77.9804 4.58161 77.844 4.62034C77.7076 4.65907 77.5805 4.7138 77.4626 4.78452C77.3464 4.85356 77.2395 4.93776 77.1418 5.03711C77.0458 5.13647 76.9633 5.24676 76.8943 5.36801C76.8269 5.48757 76.7747 5.61723 76.7377 5.757C76.7006 5.89676 76.6821 6.04158 76.6821 6.19145C76.6821 6.34132 76.7006 6.4853 76.7377 6.62338C76.7747 6.76146 76.8269 6.89113 76.8943 7.01237C76.9633 7.13193 77.0458 7.24054 77.1418 7.33821C77.2395 7.43588 77.3464 7.52008 77.4626 7.5908C77.5805 7.65984 77.7076 7.71373 77.844 7.75246C77.9804 7.78951 78.1227 7.80803 78.2709 7.80803ZM78.2709 4.34249C78.441 4.34249 78.6043 4.36438 78.7609 4.40816C78.9192 4.45195 79.0666 4.51425 79.203 4.59508C79.3394 4.67591 79.464 4.77274 79.5768 4.88556C79.6896 4.9967 79.7856 5.12131 79.8647 5.25939C79.9456 5.39579 80.0079 5.54314 80.0517 5.70143C80.0954 5.85803 80.1173 6.02137 80.1173 6.19145C80.1173 6.35985 80.0954 6.52319 80.0517 6.68148C80.0079 6.83808 79.9456 6.98459 79.8647 7.12099C79.7856 7.25738 79.6896 7.382 79.5768 7.49482C79.464 7.60596 79.3394 7.70194 79.203 7.78277C79.0666 7.8636 78.9192 7.92591 78.7609 7.96969C78.6043 8.01347 78.441 8.03536 78.2709 8.03536C78.1008 8.03536 77.9375 8.01347 77.7809 7.96969C77.6243 7.92591 77.4778 7.8636 77.3414 7.78277C77.205 7.70194 77.0804 7.60596 76.9675 7.49482C76.8564 7.382 76.7604 7.25738 76.6796 7.12099C76.5988 6.98459 76.5364 6.83808 76.4927 6.68148C76.4489 6.52487 76.427 6.36153 76.427 6.19145C76.427 6.02137 76.4489 5.85803 76.4927 5.70143C76.5364 5.54314 76.5988 5.39579 76.6796 5.25939C76.7604 5.12131 76.8564 4.9967 76.9675 4.88556C77.0804 4.77274 77.205 4.67591 77.3414 4.59508C77.4778 4.51425 77.6243 4.45195 77.7809 4.40816C77.9375 4.36438 78.1008 4.34249 78.2709 4.34249Z" fill="black"/>
</svg>
